<svg xmlns="http://www.w3.org/2000/svg" width="32.13" height="32.052" viewBox="0 0 32.13 32.052">
  <path id="address" d="M12.833,28.78v3.254l-.787-.636A52.753,52.753,0,0,1,6.1,25.583C2.052,20.937,0,16.767,0,13.188v-.355a12.833,12.833,0,0,1,25.667,0v.355c0,.3-.016.606-.045.915l-2.51-2.29A10.329,10.329,0,0,0,2.5,12.833v.355C2.5,19.236,10.3,26.557,12.833,28.78Zm7.7-1.8h3.756V23.225H20.533Zm-7.7-19.469a5.321,5.321,0,1,1-5.321,5.321A5.327,5.327,0,0,1,12.833,7.512Zm0,2.5a2.817,2.817,0,1,0,2.817,2.817A2.82,2.82,0,0,0,12.833,10.016ZM30.443,25.28l-.7-.642v4.02a3.4,3.4,0,0,1-3.395,3.395H18.416a3.4,3.4,0,0,1-3.395-3.395v-4.02l-.7.642L12.63,23.43l9.75-8.9,9.751,8.9Zm-3.208-2.927L22.38,17.924l-4.855,4.429v6.3a.892.892,0,0,0,.891.891h7.928a.892.892,0,0,0,.891-.891Zm0,0" fill="#fff"/>
</svg>
