<svg id="Group_21" data-name="Group 21" xmlns="http://www.w3.org/2000/svg" width="32.052" height="32.052" viewBox="0 0 32.052 32.052">
  <g id="Group_20" data-name="Group 20">
    <path id="Path_354" data-name="Path 354" d="M7.512,12.708H5.038A11.02,11.02,0,0,1,26.363,9.7a1.252,1.252,0,0,0,2.349-.869,13.523,13.523,0,0,0-26.206,4.55A5.01,5.01,0,0,0,0,17.716v4.257a5.014,5.014,0,0,0,5.008,5.008h2.5a1.252,1.252,0,0,0,1.252-1.252V13.96A1.252,1.252,0,0,0,7.512,12.708ZM6.26,24.477H5.008a2.507,2.507,0,0,1-2.5-2.5V17.716a2.507,2.507,0,0,1,2.5-2.5H6.26Z" fill="#fff"/>
    <path id="Path_355" data-name="Path 355" d="M229.522,203h-2.5a1.252,1.252,0,0,0-1.252,1.252v13.084a1.253,1.253,0,0,1-1.252,1.252H220.7v.04a2.5,2.5,0,1,0,0,2.425v.04h3.819a3.76,3.76,0,0,0,3.756-3.756v-.063h1.252a5.014,5.014,0,0,0,5.008-5.008v-4.257A5.014,5.014,0,0,0,229.522,203Zm2.5,9.265a2.507,2.507,0,0,1-2.5,2.5H228.27V205.5h1.252a2.507,2.507,0,0,1,2.5,2.5Z" transform="translate(-202.478 -190.292)" fill="#fff"/>
  </g>
</svg>
