<svg id="salad" xmlns="http://www.w3.org/2000/svg" width="46.248" height="46.251" viewBox="0 0 46.248 46.251">
  <g id="Group_2" data-name="Group 2" transform="translate(0 29.294)">
    <g id="Group_1" data-name="Group 1">
      <path id="Path_50" data-name="Path 50" d="M45.494,324.28H.788a.771.771,0,0,0-.771.771A16.2,16.2,0,0,0,16.2,341.238H30.078a16.206,16.206,0,0,0,16.187-16.187A.77.77,0,0,0,45.494,324.28ZM30.078,339.7H16.2A14.664,14.664,0,0,1,1.579,325.822H44.7A14.664,14.664,0,0,1,30.078,339.7Z" transform="translate(-0.017 -324.28)" fill="#db9a64"/>
    </g>
  </g>
  <g id="Group_4" data-name="Group 4" transform="translate(16.187 0)">
    <g id="Group_3" data-name="Group 3">
      <path id="Path_51" data-name="Path 51" d="M202.33,10.8c0-.056,0-.113-.006-.2a3.2,3.2,0,0,0-2.157-2.722l.873-.873a4.128,4.128,0,0,0,.341-5.527,4.052,4.052,0,0,0-5.7-.551c-.1.081-.193.166-.288.261l-.948.962A3.217,3.217,0,0,0,191.7.006a3.081,3.081,0,0,0-3.244,2.914c0,.056,0,.113,0,.168V4.27a3.065,3.065,0,0,0-1.538-.415c-.055,0-.113,0-.2.006a3.194,3.194,0,0,0-2.888,3.211V8.121a3.073,3.073,0,0,0-1.538-.412c-.055,0-.112,0-.2.006a3.2,3.2,0,0,0-2.889,3.211V22.357a.771.771,0,0,0,.771.771h13.1a3.081,3.081,0,0,0,2.668-4.623h1.041a3.19,3.19,0,0,0,3.227-2.919,3.064,3.064,0,0,0-.422-1.725A3.083,3.083,0,0,0,202.33,10.8Zm-1.994,1.088a1.534,1.534,0,0,1-1.09.449h-2.315a.771.771,0,0,0,0,1.542l.085,0a1.538,1.538,0,0,1,1.46,1.592,1.643,1.643,0,0,1-1.676,1.489h-3.723a.771.771,0,1,0,0,1.542,1.542,1.542,0,1,1,0,3.083H180.744V10.913a1.644,1.644,0,0,1,1.46-1.66l.084,0a1.543,1.543,0,0,1,1.539,1.539V10.8a.77.77,0,0,0,.77.771h0a.771.771,0,0,0,.771-.77h0V7.059a1.644,1.644,0,0,1,1.46-1.66l.083,0a1.544,1.544,0,0,1,1.54,1.541v0a.77.77,0,0,0,.77.771h0a.771.771,0,0,0,.771-.77h0V3.088L190,3a1.528,1.528,0,0,1,1.591-1.46,1.651,1.651,0,0,1,1.489,1.677v.64a.77.77,0,0,0,1.32.54l2.091-2.122c.057-.056.116-.109.176-.16a2.506,2.506,0,0,1,3.517.33,2.589,2.589,0,0,1-.226,3.463l-2.027,2.027a.771.771,0,0,0,.545,1.316h.681a1.643,1.643,0,0,1,1.633,1.46l0,.085A1.532,1.532,0,0,1,200.335,11.888Z" transform="translate(-179.202 -0.001)" fill="#db9a64"/>
    </g>
  </g>
  <g id="Group_6" data-name="Group 6" transform="translate(11.789 4.852)">
    <g id="Group_5" data-name="Group 5">
      <rect id="Rectangle_18" data-name="Rectangle 18" width="30.522" height="1.542" transform="translate(0 21.582) rotate(-45)" fill="#db9a64"/>
    </g>
  </g>
  <g id="Group_8" data-name="Group 8" transform="translate(28.518 6.174)">
    <g id="Group_7" data-name="Group 7">
      <rect id="Rectangle_19" data-name="Rectangle 19" width="1.542" height="3.854" fill="#db9a64"/>
    </g>
  </g>
  <g id="Group_10" data-name="Group 10" transform="translate(23.893 10.028)">
    <g id="Group_9" data-name="Group 9">
      <rect id="Rectangle_20" data-name="Rectangle 20" width="1.542" height="4.625" fill="#db9a64"/>
    </g>
  </g>
  <g id="Group_12" data-name="Group 12" transform="translate(19.269 13.874)">
    <g id="Group_11" data-name="Group 11">
      <rect id="Rectangle_21" data-name="Rectangle 21" width="1.542" height="5.396" fill="#db9a64"/>
    </g>
  </g>
  <g id="Group_14" data-name="Group 14" transform="translate(29.289 9.257)">
    <g id="Group_13" data-name="Group 13">
      <rect id="Rectangle_22" data-name="Rectangle 22" width="3.854" height="1.542" fill="#db9a64"/>
    </g>
  </g>
  <g id="Group_16" data-name="Group 16" transform="translate(24.664 13.874)">
    <g id="Group_15" data-name="Group 15">
      <rect id="Rectangle_23" data-name="Rectangle 23" width="4.625" height="1.542" fill="#db9a64"/>
    </g>
  </g>
  <g id="Group_18" data-name="Group 18" transform="translate(20.039 18.499)">
    <g id="Group_17" data-name="Group 17">
      <rect id="Rectangle_24" data-name="Rectangle 24" width="5.396" height="1.542" fill="#db9a64"/>
    </g>
  </g>
  <g id="Group_20" data-name="Group 20" transform="translate(2.791 1.756)">
    <g id="Group_19" data-name="Group 19">
      <path id="Path_52" data-name="Path 52" d="M42.512,21.251l0,0a3.556,3.556,0,0,0-4.926-.984c-.051.033-.1.069-.158.111l-.278.211-.267-.192a3.546,3.546,0,1,0-4.225,5.644l.649.507v.395a3.854,3.854,0,1,0,7.707,0v-.395l.682-.533A3.548,3.548,0,0,0,42.512,21.251ZM40.754,24.79l-.987.771a.771.771,0,0,0-.3.607v.771a2.312,2.312,0,1,1-4.625,0v-.771a.769.769,0,0,0-.3-.607l-.987-.771a.759.759,0,0,0-.093-.062,2,2,0,1,1,2.383-3.183.812.812,0,0,0,.084.07l.771.555a.77.77,0,0,0,.917-.012l.812-.611a1.993,1.993,0,0,1,2.316,3.244Z" transform="translate(-30.916 -19.441)" fill="#db9a64"/>
    </g>
  </g>
  <g id="Group_22" data-name="Group 22" transform="translate(16.956 0.771)">
    <g id="Group_21" data-name="Group 21">
      <rect id="Rectangle_25" data-name="Rectangle 25" width="1.542" height="1.542" fill="#db9a64"/>
    </g>
  </g>
  <g id="Group_24" data-name="Group 24" transform="translate(21.581 25.436)">
    <g id="Group_23" data-name="Group 23">
      <rect id="Rectangle_26" data-name="Rectangle 26" width="1.542" height="1.542" fill="#db9a64"/>
    </g>
  </g>
  <g id="Group_26" data-name="Group 26" transform="translate(41.623 4.629)">
    <g id="Group_25" data-name="Group 25">
      <path id="Path_53" data-name="Path 53" d="M460.787,51.24v1.542a1.542,1.542,0,1,1,0,3.083v1.542a3.083,3.083,0,0,0,0-6.166Z" transform="translate(-460.787 -51.24)" fill="#db9a64"/>
    </g>
  </g>
  <g id="Group_28" data-name="Group 28" transform="translate(1.54 11.57)">
    <g id="Group_27" data-name="Group 27">
      <rect id="Rectangle_27" data-name="Rectangle 27" width="1.542" height="1.542" fill="#db9a64"/>
    </g>
  </g>
  <g id="Group_30" data-name="Group 30" transform="translate(0 8.486)">
    <g id="Group_29" data-name="Group 29">
      <rect id="Rectangle_28" data-name="Rectangle 28" width="1.542" height="1.542" fill="#db9a64"/>
    </g>
  </g>
  <g id="Group_32" data-name="Group 32" transform="translate(26.978 24.669)">
    <g id="Group_31" data-name="Group 31">
      <path id="Path_54" data-name="Path 54" d="M301.747,273.083a3.086,3.086,0,0,0-3.083,3.083h1.542a1.542,1.542,0,1,1,3.083,0h1.542A3.086,3.086,0,0,0,301.747,273.083Z" transform="translate(-298.664 -273.083)" fill="#db9a64"/>
    </g>
  </g>
  <g id="Group_34" data-name="Group 34" transform="translate(0 15.419)">
    <g id="Group_33" data-name="Group 33">
      <path id="Path_55" data-name="Path 55" d="M9.268,173h-.1A3.084,3.084,0,0,0,3.2,173H3.1a3.083,3.083,0,1,0,0,6.166H9.268a3.083,3.083,0,1,0,0-6.166Zm0,4.626H3.1a1.542,1.542,0,1,1,0-3.083h.771a.771.771,0,0,0,.771-.771,1.542,1.542,0,0,1,3.083,0,.771.771,0,0,0,.771.771h.771a1.542,1.542,0,1,1,0,3.083Z" transform="translate(-0.018 -170.69)" fill="#db9a64"/>
    </g>
  </g>
  <g id="Group_36" data-name="Group 36" transform="translate(3.854 22.356)">
    <g id="Group_35" data-name="Group 35">
      <path id="Path_56" data-name="Path 56" d="M46.535,247.485H43.452a.771.771,0,0,0-.771.771v3.083a.771.771,0,0,0,.771.771h3.083a.771.771,0,0,0,.771-.771v-3.083A.771.771,0,0,0,46.535,247.485Zm-.771,3.083H44.223v-1.542h1.542v1.542Z" transform="translate(-42.681 -247.485)" fill="#db9a64"/>
    </g>
  </g>
  <g id="Group_38" data-name="Group 38" transform="translate(38.54 20.044)">
    <g id="Group_37" data-name="Group 37">
      <path id="Path_57" data-name="Path 57" d="M428.968,221.887a2.312,2.312,0,1,0,2.312,2.312A2.315,2.315,0,0,0,428.968,221.887Zm0,3.084a.771.771,0,1,1,.771-.771A.772.772,0,0,1,428.968,224.971Z" transform="translate(-426.656 -221.887)" fill="#db9a64"/>
    </g>
  </g>
  <g id="Group_40" data-name="Group 40" transform="translate(35.457 16.961)">
    <g id="Group_39" data-name="Group 39">
      <path id="Path_58" data-name="Path 58" d="M397.921,187.756a5.4,5.4,0,1,0,5.4,5.4A5.4,5.4,0,0,0,397.921,187.756Zm0,9.25a3.854,3.854,0,1,1,3.854-3.854A3.859,3.859,0,0,1,397.921,197.006Z" transform="translate(-392.525 -187.756)" fill="#db9a64"/>
    </g>
  </g>
</svg>
